<svg xmlns="http://www.w3.org/2000/svg" version="1.1" xmlns:xlink="http://www.w3.org/1999/xlink" xmlns:svgjs="http://svgjs.dev/svgjs" width="2000" height="1500" viewBox="0 0 2000 1500"><rect width="2000" height="1500" fill="#ffffff"></rect><g transform="matrix(0.75,0,0,0.75,249.090909090909,301.4223685855462)"><svg viewBox="0 0 396 248" data-background-color="#f8eded" preserveAspectRatio="xMidYMid meet" height="1252" width="2000" xmlns="http://www.w3.org/2000/svg" xmlns:xlink="http://www.w3.org/1999/xlink"><g id="tight-bounds" transform="matrix(1,0,0,1,0.2400000000000091,0.4000000000000057)"><svg viewBox="0 0 395.52 247.2" height="247.2" width="395.52"><g><svg></svg></g><g><svg viewBox="0 0 395.52 247.2" height="247.2" width="395.52"><g transform="matrix(1,0,0,1,75.54432,59.36853343920595)"><svg viewBox="0 0 244.43135999999998 128.4629331215881" height="128.4629331215881" width="244.43135999999998"><g><svg viewBox="0 0 244.43135999999998 128.4629331215881" height="128.4629331215881" width="244.43135999999998"><g><svg viewBox="0 0 244.43135999999998 128.4629331215881" height="128.4629331215881" width="244.43135999999998"><g><svg viewBox="0 0 244.43135999999998 128.4629331215881" height="128.4629331215881" width="244.43135999999998"><g id="textblocktransform"><svg viewBox="0 0 244.43135999999998 128.4629331215881" height="128.4629331215881" width="244.43135999999998" id="textblock"><g><svg viewBox="0 0 244.43135999999998 128.4629331215881" height="128.4629331215881" width="244.43135999999998"><g transform="matrix(1,0,0,1,0,0)"><svg width="244.43135999999998" viewBox="4 -43.95 100.74 52.95" height="128.4629331215881" data-palette-color="#b43f3f"><path d="M22.6-6.7L22.6-1.1 4-12.5 4-17.05 22.6-28.4 22.6-22.85 9.38-14.78 22.6-6.7ZM37 0L30.8 0 30.8-35.45 31.3-35.45 45.4-18.82 59.4-35.45 59.95-35.45 59.95 0 53.75 0 53.75-14.95 53.97-20.85 52.2-18.15 45.35-10.1 38.5-18.15 36.72-20.85 37-14.95 37 0ZM83.05-43.95L68.15 9 63.25 8.95 78.15-43.95 83.05-43.95ZM104.74-12.5L86.14-1.1 86.14-6.7 99.37-14.78 86.14-22.85 86.14-28.4 104.74-17.05 104.74-12.5Z" opacity="1" transform="matrix(1,0,0,1,0,0)" fill="#000000" class="wordmark-text-0" data-fill-palette-color="primary" id="text-0"></path></svg></g></svg></g></svg></g></svg></g><g></g></svg></g></svg></g></svg></g><g><path d="M120.33 29.042A122.216 122.216 0 0 1 275.19 29.042L263.605 29.042A110.631 110.631 0 0 0 131.915 29.042L120.33 29.042M120.33 218.158A122.216 122.216 0 0 0 275.19 218.158L263.605 218.158A110.631 110.631 0 0 1 131.915 218.158L120.33 218.158" fill="#000000" stroke="transparent" data-fill-palette-color="tertiary"></path></g></svg></g><defs></defs></svg><rect width="395.52" height="247.2" fill="none" stroke="none" visibility="hidden"></rect></g></svg></g></svg>